<mxfile host="app.diagrams.net" modified="2023-04-11T03:38:24.714Z" agent="Mozilla/5.0 (Windows NT 10.0; Win64; x64) AppleWebKit/537.36 (KHTML, like Gecko) Chrome/111.0.0.0 Safari/537.36" etag="Jd7A3wxek6MPoOad6cU_" version="21.1.5" type="github">
  <diagram name="Page-1" id="_nHceGPDVJT58wYYPu5a">
    <mxGraphModel dx="1750" dy="955" grid="1" gridSize="10" guides="1" tooltips="1" connect="1" arrows="1" fold="1" page="1" pageScale="1" pageWidth="850" pageHeight="1100" math="0" shadow="0">
      <root>
        <mxCell id="0" />
        <mxCell id="1" parent="0" />
        <mxCell id="__Kq8EoAcoEPigziXRC--2" value="" style="verticalLabelPosition=bottom;verticalAlign=top;html=1;shadow=0;dashed=0;strokeWidth=1;shape=mxgraph.android.phone2;strokeColor=#6c8ebf;fillColor=#dae8fc;" vertex="1" parent="1">
          <mxGeometry x="250" y="100" width="410" height="870" as="geometry" />
        </mxCell>
        <mxCell id="__Kq8EoAcoEPigziXRC--9" value="" style="rounded=1;whiteSpace=wrap;html=1;absoluteArcSize=1;arcSize=14;strokeWidth=2;" vertex="1" parent="1">
          <mxGeometry x="484.38" y="330" width="120" height="110" as="geometry" />
        </mxCell>
        <mxCell id="__Kq8EoAcoEPigziXRC--3" value="" style="verticalLabelPosition=bottom;verticalAlign=top;html=1;shadow=0;dashed=0;strokeWidth=1;shape=mxgraph.android.switch_on;fillColor=#E6E6E6;sketch=0;" vertex="1" parent="1">
          <mxGeometry x="491.88" y="390" width="100" height="40" as="geometry" />
        </mxCell>
        <mxCell id="__Kq8EoAcoEPigziXRC--10" value="Light" style="text;strokeColor=none;fillColor=none;html=1;fontSize=24;fontStyle=1;verticalAlign=middle;align=center;" vertex="1" parent="1">
          <mxGeometry x="484.38" y="330" width="120" height="40" as="geometry" />
        </mxCell>
        <mxCell id="__Kq8EoAcoEPigziXRC--11" value="" style="rounded=1;whiteSpace=wrap;html=1;absoluteArcSize=1;arcSize=14;strokeWidth=2;" vertex="1" parent="1">
          <mxGeometry x="486.88" y="470" width="120" height="110" as="geometry" />
        </mxCell>
        <mxCell id="__Kq8EoAcoEPigziXRC--12" value="" style="verticalLabelPosition=bottom;verticalAlign=top;html=1;shadow=0;dashed=0;strokeWidth=1;shape=mxgraph.android.switch_on;fillColor=#E6E6E6;sketch=0;" vertex="1" parent="1">
          <mxGeometry x="501.88" y="515" width="90" height="40" as="geometry" />
        </mxCell>
        <mxCell id="__Kq8EoAcoEPigziXRC--13" value="Fan" style="text;strokeColor=none;fillColor=none;html=1;fontSize=24;fontStyle=1;verticalAlign=middle;align=center;" vertex="1" parent="1">
          <mxGeometry x="486.88" y="470" width="120" height="40" as="geometry" />
        </mxCell>
        <mxCell id="__Kq8EoAcoEPigziXRC--15" value="" style="strokeWidth=2;html=1;shape=mxgraph.flowchart.start_2;whiteSpace=wrap;" vertex="1" parent="1">
          <mxGeometry x="294.38" y="370" width="160" height="170" as="geometry" />
        </mxCell>
        <mxCell id="__Kq8EoAcoEPigziXRC--16" value="" style="rounded=1;whiteSpace=wrap;html=1;absoluteArcSize=1;arcSize=14;strokeWidth=2;" vertex="1" parent="1">
          <mxGeometry x="303.13" y="620" width="312.5" height="90" as="geometry" />
        </mxCell>
        <mxCell id="__Kq8EoAcoEPigziXRC--19" value="&lt;font style=&quot;font-size: 37px;&quot;&gt;28*C&lt;/font&gt;" style="text;strokeColor=none;fillColor=none;html=1;fontSize=24;fontStyle=1;verticalAlign=middle;align=center;" vertex="1" parent="1">
          <mxGeometry x="324.38" y="411.25" width="100" height="87.5" as="geometry" />
        </mxCell>
        <mxCell id="__Kq8EoAcoEPigziXRC--20" value="Không có người" style="text;strokeColor=none;fillColor=none;html=1;fontSize=24;fontStyle=1;verticalAlign=middle;align=center;" vertex="1" parent="1">
          <mxGeometry x="314.38" y="630" width="290" height="70" as="geometry" />
        </mxCell>
      </root>
    </mxGraphModel>
  </diagram>
</mxfile>
